<svg width="87" height="62" viewBox="0 0 87 62" fill="none" xmlns="http://www.w3.org/2000/svg">
<g clip-path="url(#clip0_22_777)">
<path d="M66.0871 41.7845V44.483H22.4492V0H25.1446V41.7845H66.0871Z" fill="#434A9F"/>
<path d="M35.7983 24.5254V38.7775H30.4785V27.6454L30.982 28.2913L35.7983 24.5254Z" fill="#434A9F"/>
<path d="M44.1215 18.0186V38.7768H38.8008V22.1785L44.1215 18.0186Z" fill="#434A9F"/>
<path d="M52.4437 11.5117V38.777H47.123V15.6708L52.4437 11.5117Z" fill="#434A9F"/>
<path d="M60.766 7.21777V38.7775H55.4453V10.9411L57.9211 14.1122L60.7054 7.21777H60.766Z" fill="#434A9F"/>
<path d="M61.833 0.110352L50.3105 1.73002L52.9188 5.07164L29.3164 23.5254L31.2632 26.0184L54.8656 7.56554L57.4739 10.9062L61.833 0.110352Z" fill="#ED1C24"/>
<path d="M0 48.0166H4.12066C6.18098 48.0261 8.20629 48.9496 8.20629 51.4634C8.20629 53.9772 6.18098 54.8808 4.12066 54.8902H0V48.0166ZM4.12066 54.1041C5.60462 54.1041 7.26462 53.5538 7.26462 51.4624C7.26462 49.3711 5.60462 48.8018 4.12066 48.8018H0.941675V54.1041H4.12066Z" fill="#434A9F"/>
<path d="M9.16016 48.0166H10.1728L16.3898 53.7906V48.0166H17.3314V54.8902H16.3424L10.1141 49.1163V54.8902H9.16016V48.0166Z" fill="#434A9F"/>
<path d="M21.7099 48.0166H22.6752L26.4542 54.8902H25.3829L24.4762 53.2403H19.8842L18.9776 54.8902H17.9062L21.7089 48.0166H21.7099ZM24.0532 52.4446L22.1925 49.0765L20.3205 52.4446H24.0532Z" fill="#434A9F"/>
<path d="M31.0234 48.0166H39.2184V48.8122H31.9774V51.0513H38.2644V51.8365H31.9774V54.8902H31.0234V48.0166Z" fill="#434A9F"/>
<path d="M40.043 47.957H41.0083V54.8894H40.043V47.957Z" fill="#434A9F"/>
<path d="M42.0664 48.0166H43.0791L49.296 53.7906V48.0166H50.2377V54.8902H49.2487L43.0204 49.1163V54.8902H42.0664V48.0166Z" fill="#434A9F"/>
<path d="M54.6181 48.0166H55.5834L59.3624 54.8902H58.2911L57.3844 53.2403H52.7924L51.8858 54.8902H50.8145L54.6171 48.0166H54.6181ZM56.9604 52.4446L55.0998 49.0765L53.2278 52.4446H56.9604Z" fill="#434A9F"/>
<path d="M59.9277 48.0166H60.9404L67.1573 53.7906V48.0166H68.099V54.8902H67.11L60.8817 49.1163V54.8902H59.9277V48.0166Z" fill="#434A9F"/>
<path d="M68.9336 51.4334C68.9336 48.8211 71.0886 47.8493 73.2426 47.8398C74.7029 47.8398 77.0812 47.9478 77.5989 49.9805L76.4689 49.9606C76.1746 48.8022 74.7852 48.6648 73.2426 48.6743C71.7122 48.6743 69.9226 49.254 69.9226 51.4334C69.9226 53.6129 71.7122 54.202 73.2426 54.202C74.7729 54.202 76.1746 54.0647 76.4689 52.9063L77.5989 52.8968C77.0812 54.92 74.7029 55.0279 73.2426 55.0279C71.0876 55.0185 68.9336 54.0457 68.9336 51.4344V51.4334Z" fill="#434A9F"/>
<path d="M78.7305 48.0166H86.9254V48.8122H79.6844V51.0513H85.9478V51.8365H79.6844V54.0946H86.9254V54.8902H78.7305V48.0166Z" fill="#434A9F"/>
<path d="M33.1934 62.0002C32.882 62.0002 32.6028 61.9282 32.3568 61.7851C32.1107 61.6421 31.9167 61.4347 31.7747 61.1648C31.6328 60.8939 31.5627 60.5661 31.5627 60.1816C31.5627 59.8955 31.6044 59.6389 31.6896 59.4134C31.7738 59.188 31.8902 58.9957 32.0378 58.8385C32.1855 58.6813 32.3587 58.561 32.5574 58.4786C32.7562 58.3962 32.9729 58.3545 33.2085 58.3545C33.4565 58.3545 33.6657 58.4009 33.836 58.4928C34.0064 58.5856 34.1436 58.6869 34.2486 58.7987L33.9534 59.152C33.8644 59.0658 33.7622 58.9919 33.6477 58.9304C33.5332 58.8688 33.3912 58.8375 33.2227 58.8375C33.006 58.8375 32.8167 58.8915 32.653 58.9995C32.4893 59.1075 32.3625 59.2609 32.2716 59.4579C32.1807 59.655 32.1353 59.8927 32.1353 60.1693C32.1353 60.4458 32.1779 60.6855 32.264 60.8872C32.3502 61.089 32.4751 61.2443 32.6407 61.3523C32.8063 61.4603 33.0098 61.5143 33.2511 61.5143C33.359 61.5143 33.4622 61.4991 33.5587 61.4688C33.6552 61.4385 33.7347 61.3968 33.7944 61.3419V60.5207H33.1025V60.0622H34.2998V61.5853C34.1824 61.7027 34.0281 61.8022 33.837 61.8808C33.6458 61.9604 33.4319 62.0002 33.1934 62.0002Z" fill="#434A9F"/>
<path d="M37.0081 61.9328V58.415H38.1579C38.3993 58.415 38.616 58.4472 38.8062 58.5126C38.9974 58.578 39.1479 58.684 39.2596 58.8327C39.3712 58.9805 39.4261 59.1823 39.4261 59.437C39.4261 59.6918 39.3703 59.8841 39.2596 60.0432C39.1479 60.2024 38.9974 60.3207 38.8062 60.3984C38.6151 60.4761 38.3993 60.5159 38.1579 60.5159H37.5617V61.9338H37.0081V61.9328ZM37.5617 60.0716H38.0907C38.3453 60.0716 38.5403 60.0186 38.6747 59.9116C38.81 59.8045 38.8772 59.6464 38.8772 59.437C38.8772 59.2277 38.81 59.0752 38.6747 58.9909C38.5393 58.9066 38.3444 58.8649 38.0907 58.8649H37.5617V60.0726V60.0716ZM38.9255 61.9328L38.0529 60.3672L38.4627 60.047L39.5501 61.9328H38.9255Z" fill="#434A9F"/>
<path d="M43.3811 62.0001C43.0821 62.0001 42.8171 61.9253 42.5871 61.7756C42.3562 61.626 42.1764 61.4138 42.0458 61.1382C41.9152 60.8625 41.8499 60.5377 41.8499 60.1616C41.8499 59.7856 41.9152 59.4588 42.0458 59.1898C42.1764 58.9208 42.3562 58.7144 42.5871 58.5694C42.818 58.4245 43.0821 58.3525 43.3811 58.3525C43.6802 58.3525 43.949 58.4245 44.178 58.5694C44.407 58.7144 44.5869 58.9208 44.7165 59.1898C44.8471 59.4588 44.9124 59.7828 44.9124 60.1616C44.9124 60.5405 44.8471 60.8625 44.7165 61.1382C44.5859 61.4138 44.4061 61.626 44.178 61.7756C43.949 61.9253 43.684 62.0001 43.3811 62.0001ZM43.3811 61.5133C43.5752 61.5133 43.7446 61.4574 43.8894 61.3465C44.0342 61.2348 44.1458 61.0785 44.2253 60.8767C44.3048 60.675 44.3446 60.4373 44.3446 60.1635C44.3446 59.8898 44.3048 59.654 44.2253 59.455C44.1458 59.2561 44.0342 59.1036 43.8894 58.9966C43.7446 58.8896 43.5752 58.8365 43.3811 58.8365C43.1871 58.8365 43.0177 58.8896 42.8729 58.9966C42.7281 59.1036 42.6164 59.2561 42.5388 59.455C42.4612 59.654 42.4224 59.8898 42.4224 60.1635C42.4224 60.4373 42.4612 60.675 42.5388 60.8767C42.6164 61.0785 42.7281 61.2357 42.8729 61.3465C43.0177 61.4583 43.1871 61.5133 43.3811 61.5133Z" fill="#434A9F"/>
<path d="M48.8385 62.0001C48.6445 62.0001 48.4675 61.9717 48.3066 61.9139C48.1457 61.8561 48.0085 61.7661 47.894 61.6421C47.7795 61.518 47.6905 61.356 47.6271 61.1552C47.5637 60.9544 47.5315 60.711 47.5315 60.4249V58.415H48.0851V60.4581C48.0851 60.7224 48.1173 60.9317 48.1826 61.0861C48.2479 61.2405 48.3369 61.3503 48.4495 61.4157C48.5621 61.481 48.6918 61.5132 48.8385 61.5132C48.9852 61.5132 49.1196 61.481 49.2341 61.4157C49.3486 61.3503 49.4395 61.2405 49.5057 61.0861C49.5729 60.9317 49.606 60.7224 49.606 60.4581V58.415H50.1398V60.4249C50.1398 60.711 50.1086 60.9544 50.047 61.1552C49.9855 61.356 49.8966 61.518 49.782 61.6421C49.6675 61.7661 49.5303 61.8571 49.3694 61.9139C49.2085 61.9707 49.0316 62.0001 48.8375 62.0001H48.8385Z" fill="#434A9F"/>
<path d="M52.9534 61.9328V58.415H54.0171C54.2812 58.415 54.513 58.4491 54.7137 58.5173C54.9143 58.5855 55.0724 58.6973 55.1878 58.8517C55.3033 59.0061 55.362 59.2164 55.362 59.4844C55.362 59.7524 55.3042 59.9485 55.1907 60.1124C55.0762 60.2762 54.92 60.3984 54.7213 60.4799C54.5225 60.5613 54.2944 60.6011 54.037 60.6011H53.508V61.9328H52.9543H52.9534ZM53.5061 60.1531H53.9878C54.2641 60.1531 54.4714 60.0991 54.6077 59.9911C54.744 59.8832 54.8131 59.7146 54.8131 59.4853C54.8131 59.2561 54.7411 59.0875 54.5982 58.9985C54.4553 58.9095 54.2433 58.8649 53.9641 58.8649H53.5061V60.1541V60.1531Z" fill="#434A9F"/>
</g>
<defs>
<clipPath id="clip0_22_777">
<rect width="86.9246" height="62" fill="white"/>
</clipPath>
</defs>
</svg>
