<svg width="549" height="104" viewBox="0 0 549 104" fill="none" xmlns="http://www.w3.org/2000/svg">
<path d="M15.849 97.0506C10.7951 91.719 18.6768 86.7106 24.1321 84.0046C31.2222 80.4871 40.8524 77.3751 48.894 80.6327C60.1166 85.184 47.6739 97.8179 40.6127 90.2131C36.5842 85.8887 38.3075 79.2911 41.0009 74.8553C44.6366 68.8858 50.2475 63.549 56.0224 58.7471C65.0432 51.2445 84.9472 36.7042 98.149 47.1088C105.086 52.5721 101.048 59.8997 92.9549 62.7509C93.4411 62.6007 93.9513 62.4619 94.4421 62.3266C93.9902 62.4549 93.5336 62.5684 93.0816 62.6967C93.5918 62.5579 94.0826 62.4226 94.578 62.3021C92.3215 62.755 90.3033 63.6511 89.9267 61.5551C89.7219 60.3532 89.8413 59.14 90.1295 57.9436C90.6019 55.9456 92.0556 54.2102 93.847 52.7748C98.5725 49.024 104.202 48.6229 111.398 48.7869C124.445 49.0744 139.355 54.7658 139.561 65.9869C139.566 65.7352 142.549 65.4495 142.559 65.1497C142.327 52.7101 124.778 47.5563 110.814 47.9512C100.748 48.2407 87.0445 52.0226 86.8365 61.0917C86.8293 61.7358 86.9431 62.3739 87.0569 63.012C87.2799 64.2734 88.9419 63.5511 90.1825 63.3906C91.0454 63.2668 91.8763 63.039 92.7072 62.8111C96.0892 61.8892 98.9838 60.9138 101.603 58.9061C109.235 53.0175 102.043 44.1191 92.9108 42.8452C88.0119 42.1584 82.8071 43.612 78.3282 45.0291C70.2891 47.5883 63.3699 51.7964 57.1158 56.3709C46.9355 63.8311 34.2028 74.6512 35.6448 86.2302C36.1368 90.1714 39.0917 93.999 44.8381 93.3103C47.9778 92.9338 51.473 91.6466 53.7278 89.9866C57.1197 87.4949 57.7254 83.7952 54.3716 81.137C49.3694 77.176 42.0981 78.233 35.9986 79.7064C27.8983 81.6651 4.42735 88.913 12.8711 97.8214C13.0558 98.0234 15.6984 96.8268 15.8547 97.0025L15.849 97.0506Z" fill="#D98BD3"/>
<path d="M546.902 87.0345C532.69 82.4804 531.767 67.1713 521.506 59.2011C511.966 51.7789 485.807 38.2733 473.653 49.4633C471.213 51.7198 473.659 55.7349 476.625 56.9652C481.167 58.8502 485.429 54.8303 487.101 52.2003C489.304 48.7117 489.443 44.7021 488.644 40.9494C486.204 29.33 473.402 18.0028 460.024 13.0582C460.763 13.326 460.676 14.9545 461.422 15.2367C472.609 19.3871 483.031 27.4754 486.601 36.7104C488.309 41.1384 487.954 45.7744 485.684 50.0269C483.828 53.4856 476.314 57.9746 472.846 53.0398C473.307 53.7564 473.769 54.473 474.23 55.1895C472.975 51.821 477.357 49.5999 480.895 48.5178C485.233 47.2003 490.253 47.7062 494.651 48.5121C504.232 50.2654 513.154 54.7768 520.498 59.6716C527.501 64.3354 530.415 70.443 534.417 76.6581C537.668 81.7172 541.163 86.9365 548.307 89.2274C547.582 88.9883 547.653 87.2828 546.909 87.0489L546.902 87.0345Z" fill="#D98BD3"/>
</svg>
